<!DOCTYPE svg PUBLIC "-//W3C//DTD SVG 1.1//EN" "http://www.w3.org/Graphics/SVG/1.1/DTD/svg11.dtd">
<!-- Uploaded to: SVG Find, www.svgrepo.com, Transformed by: SVG Find Mixer Tools -->
<svg fill="#0ea5e9" width="800px" height="800px" version="1.1" viewBox="144 144 512 512" xmlns="http://www.w3.org/2000/svg" stroke="#0ea5e9">
<g id="SVGRepo_bgCarrier" stroke-width="0"/>
<g id="SVGRepo_tracerCarrier" stroke-linecap="round" stroke-linejoin="round"/>
<g id="SVGRepo_iconCarrier"> <g> <path d="m400 214.24c67.457 86.859 136.03 196.79 136.03 246.62-0.66016 35.785-15.359 69.883-40.93 94.926-25.574 25.047-59.965 39.035-95.758 38.949-35.793-0.089844-70.117-14.242-95.57-39.41-25.449-24.844-39.801-58.902-39.801-94.465 0-16.727 8.5664-58.09 66-147.72 26.754-41.613 54.613-78.895 70.031-98.898m0-40.605c-4.0117 0.003906-7.9102 1.332-11.086 3.7773-1.082 0.85938-2.0625 1.8398-2.9219 2.9219-15.77 19.699-153.96 194.97-153.96 280.52v0.003906c0 44.547 17.699 87.273 49.199 118.77s74.223 49.195 118.77 49.195c44.547 0 87.27-17.695 118.77-49.195 31.504-31.5 49.199-74.227 49.199-118.77 0-85.648-138.2-260.77-153.96-280.52v-0.003906c-3.4102-4.2422-8.5625-6.707-14.004-6.6992z"/> <path d="m400 557.84c-25.355-0.10938-49.641-10.227-67.57-28.156-17.93-17.93-28.051-42.215-28.156-67.57 0.29687-5.0586 3.168-9.6133 7.6055-12.062 4.4414-2.4492 9.8242-2.4492 14.262 0 4.4375 2.4492 7.3125 7.0039 7.6055 12.062 0.082031 17.551 7.0859 34.363 19.492 46.777 12.406 12.414 29.211 19.434 46.762 19.523 5.2539 0 10.109 2.8047 12.738 7.3555 2.6289 4.5547 2.6289 10.16 0 14.715-2.6289 4.5508-7.4844 7.3555-12.738 7.3555z"/> </g> </g>
</svg>